<?xml version="1.0" encoding="utf-8"?>
<svg version="1.1" id="Logo" xmlns="http://www.w3.org/2000/svg" xmlns:xlink="http://www.w3.org/1999/xlink" x="0px" y="0px"
	 viewBox="0 0 214.2759705 90.7672806" style="enable-background:new 0 0 214.2759705 90.7672806;" xml:space="preserve">
<style type="text/css">
	.st0{fill:#5B5857;}
	.st1{fill:#EF7D17;}
</style>
<polygon id="Trave_maior" class="st1" points="214.2406158,0 0.0002454,0 0.0002454,68.2936707 11.2300816,68.2936707 
	11.2300816,11.2195272 203.0222168,11.2195272 203.0222168,68.2936707 214.2406158,68.2936707 214.2406158,66.3358612 "/>
<polygon id="Trave_menor" class="st1" points="151.0611267,39.9181366 63.1847191,39.9181366 63.1847191,68.2811584 
	67.8471451,68.2811584 67.8471451,44.5805969 146.3917542,44.5805969 146.3917542,68.2811584 151.0611267,68.2811584 
	151.0611267,67.0965881 "/>
<polygon id="M" class="st0" points="12.9440765,80.7036133 12.9440765,80.7036133 7.8151698,88.070694 2.6724832,80.7036133 
	2.5610173,80.5450592 0,80.5450592 0,90.6753616 2.0382597,90.6753616 2.0382597,83.2864609 7.0407987,90.4949799 
	7.1625733,90.6753616 8.4723597,90.6753616 8.5907326,90.4949799 13.5829277,83.2864609 13.5829277,90.6753616 
	15.6349325,90.6753616 15.6349325,80.5450592 13.0658855,80.5450592 "/>
<path id="U_1" class="st0" d="M28.4917011,87.9201889L28.4917011,87.9201889c0,0.5526352,0,1.0328979-1.6211815,1.0328979
	h-4.3855324c-1.639555,0-1.639555-0.4802628-1.639555-1.0328979v-7.3751297h-2.0474472v7.382019
	c0,2.3599472,1.4879074,2.8402023,3.7226257,2.8402023h4.3074112c2.2335625,0,3.7225914-0.4802551,3.7225914-2.8402023v-7.382019
	h-2.0589123V87.9201889z"/>
<path id="S" class="st0" d="M41.1853218,84.6123505L41.1853218,84.6123505h-3.7490311
	c-1.9221992,0-1.9221992-0.336647-1.9221992-1.0892029c0-1.0398026,0.2470207-1.2627029,2.9056892-1.2627029h1.3408508
	c3.0803413,0,3.0883675,0.1436234,3.1090584,1.3626556v0.3734131h1.9692879v-0.6962662
	c0-2.0577698-1.2075424-2.8608856-4.3143158-2.8608856h-2.7184181c-2.6287956,0-4.2568474,0.5009384-4.2568474,2.997612
	c0,2.961998,1.8819809,3.084938,5.509201,3.084938h2.3921165c1.5200615,0,1.6498985,0.2791901,1.6498985,1.0972443
	c0,0.9823532-0.1654282,1.333931-1.9807892,1.333931h-3.9271164c-1.6671143,0-1.6671143-0.5101318-1.6671143-0.9685593v-1.0466995
	h-1.9727631v1.0823135c0,2.747139,2.7069511,2.747139,3.8662109,2.747139h3.4997292c1.4522858,0,4.15345,0,4.15345-2.8470917
	v-0.6100998C45.0722198,84.8938446,42.848999,84.6123505,41.1853218,84.6123505"/>
<polygon id="E_1" class="st0" points="50.114975,86.3713913 50.114975,86.3713913 57.7106857,86.3713913 57.7106857,84.5491562 
	50.114975,84.5491562 50.114975,82.360405 58.023201,82.360405 58.023201,80.5450592 48.0629349,80.5450592 48.0629349,90.6753616 
	58.0691719,90.6753616 58.0691719,88.8450851 50.114975,88.8450851 "/>
<path id="U_2" class="st0" d="M70.4537048,87.9201889L70.4537048,87.9201889c0,0.5526352,0,1.0328979-1.6280518,1.0328979
	h-4.3867264c-1.6314888,0-1.6314888-0.4802628-1.6314888-1.0328979v-7.3751297h-2.0508804v7.382019
	c0,2.3599472,1.4878693,2.8402023,3.7191505,2.8402023h4.3108521c2.2232513,0,3.7226257-0.4802551,3.7226257-2.8402023v-7.382019
	h-2.055481V87.9201889z"/>
<path id="D" class="st0" d="M91.3669052,80.5450363h-7.9404297v10.1303101h7.9048462
	c3.7088013,0,4.4108276-1.7877808,4.4108276-5.0645752C95.7421494,81.7227097,94.724144,80.5450363,91.3669052,80.5450363z
	 M93.691246,86.1048508c0,2.5540771-0.8605957,2.7402344-2.1876221,2.7402344h-6.0181885V82.360405h6.2181396
	c1.2017822,0,1.9876709,0.1941528,1.9876709,2.7907715V86.1048508z"/>
<path id="O_1" class="st0" d="M107.5855331,80.4393234h-5.3724976c-2.6115723,0-3.7191772,1.1604614-3.7191772,3.8858032v2.5552368
	c0,2.7322388,1.107605,3.8869019,3.7191772,3.8869019h5.3724976c2.6173096,0,3.7260132-1.1546631,3.7260132-3.8869019v-2.5552368
	C111.3115463,81.5997849,110.2028427,80.4393234,107.5855331,80.4393234z M109.264122,87.3675461
	c0,1.1408691-0.5020752,1.5855103-1.800354,1.5855103h-5.1220703c-1.2902832,0-1.800415-0.4446411-1.800415-1.5855103V83.844841
	c0-1.1397705,0.5101318-1.5844116,1.800415-1.5844116h5.1220703c1.2982788,0,1.800354,0.4446411,1.800354,1.5844116V87.3675461z"/>
<polygon id="F" class="st0" points="122.0680542,90.6753616 122.0680542,90.6753616 124.1223755,90.6753616 124.1223755,86.3713913 
	131.4572906,86.3713913 131.4572906,84.5491562 124.1223755,84.5491562 124.1223755,82.360405 131.7513885,82.360405 
	131.7513885,80.5450592 122.0680542,80.5450592 "/>
<path id="U_3" class="st0" d="M144.1393738,87.9201889L144.1393738,87.9201889c0,0.5526352,0,1.0328979-1.6361237,1.0328979
	h-4.3751526c-1.6395569,0-1.6395569-0.4802628-1.6395569-1.0328979v-7.3751297h-2.0474396v7.382019
	c0,2.3599472,1.4855804,2.8402023,3.7226257,2.8402023h4.303894c2.2301636,0,3.7157288-0.4802551,3.7157288-2.8402023v-7.382019
	h-2.0439758V87.9201889z"/>
<polygon id="T" class="st0" points="148.4100647,82.360405 148.4100647,82.360405 153.1264954,82.360405 153.1264954,90.6753616 
	155.1750946,90.6753616 155.1750946,82.360405 159.8903198,82.360405 159.8903198,80.5450592 148.4100647,80.5450592 "/>
<polygon id="E_2" class="st0" points="164.1621399,86.3713913 164.1621399,86.3713913 171.7624512,86.3713913 
	171.7624512,84.5491562 164.1621399,84.5491562 164.1621399,82.360405 172.0773163,82.360405 172.0773163,80.5450592 
	162.1216125,80.5450592 162.1216125,90.6753616 172.1209412,90.6753616 172.1209412,88.8450851 164.1621399,88.8450851 "/>
<path id="B" class="st0" d="M185.376358,85.2442551c0.4308472-0.3377686,0.6675415-0.8249512,0.6675415-1.427002v-0.8111572
	c0-0.9180298-0.3699341-2.4610596-2.8734741-2.4610596h-8.3598022v10.1303101h8.486145
	c1.8900757,0,3.1055908-0.940979,3.1055908-2.3967285v-1.097229
	C186.402359,86.4782028,186.1875153,85.6613083,185.376358,85.2442551z M176.8546295,82.360405h6.2054443
	c0.2149048,0,0.9329834,0.0367432,0.9329834,0.5813599v0.8536377c0,0.2504883,0,0.7537231-0.9984741,0.7537231h-6.1399536V82.360405
	z M184.3538361,87.9844894c0,0.4802856-0.0895996,0.8605957-1.2041016,0.8605957h-6.295105v-2.4736938h6.0974731
	c1.2190552,0,1.4017334,0.2217407,1.4017334,0.9455566V87.9844894z"/>
<path id="O_2" class="st0" d="M198.2595978,80.4393234h-5.3724976c-2.6046753,0-3.7226562,1.1604614-3.7226562,3.8858032v2.5552368
	c0,2.7322388,1.117981,3.8869019,3.7226562,3.8869019h5.3724976c2.6104126,0,3.7191162-1.1546631,3.7191162-3.8869019v-2.5552368
	C201.978714,81.5997849,200.8700104,80.4393234,198.2595978,80.4393234z M199.9347687,87.3675461
	c0,1.1408691-0.5055542,1.5855103-1.8015747,1.5855103h-5.1173706c-1.2983398,0-1.8004761-0.4446411-1.8004761-1.5855103V83.844841
	c0-1.1397705,0.5021362-1.5844116,1.8004761-1.5844116h5.1173706c1.2960205,0,1.8015747,0.4446411,1.8015747,1.5844116V87.3675461z"
	/>
<polygon id="L" class="st0" points="207.0215302,88.8450851 207.0215302,80.5450592 204.9809875,80.5450592 204.9809875,90.6753616 
	214.2759705,90.6753616 214.2759705,88.8450851 "/>
</svg>
